# xmcd CD database file
#
# Track frame offsets:
#	150
#	22041
#	40460
#	49089
#	71910
#	85878
#	97658
#	125308
#	135336
#	149225
#
# Disc length: 2388 seconds
#
# Revision: 0
# Processed by: cddbd v1.5.2PL0 Copyright (c) Steve Scherf et al.
# Submitted via: CDex 1.51
#
DISCID=8d09520a
DTITLE=Les Manuages - Il gatto e il topo
DYEAR=2007
DGENRE=Jazz
TTITLE0=01-I'll see you in my dreams
TTITLE1=02-Autumn leaves
TTITLE2=03-Taranta Manouche
TTITLE3=04-I'm confessin' (that i love you)
TTITLE4=05-Valzer della toilette
TTITLE5=06-Il Gatto e il topo
TTITLE6=07-To Django
TTITLE7=08-'Mbrin
TTITLE8=09-Sweet Georgia Brown
TTITLE9=10-Minor Swing
EXTD=YEAR: 2007
EXTT0=
EXTT1=
EXTT2=
EXTT3=
EXTT4=
EXTT5=
EXTT6=
EXTT7=
EXTT8=
EXTT9=
PLAYORDER=
